<?xml version="1.0" encoding="utf-8"?>
<!-- Uploaded to: SVG Repo, www.svgrepo.com, Generator: SVG Repo Mixer Tools -->
<svg width="800px" height="800px" viewBox="0 0 246 246" fill="none" xmlns="http://www.w3.org/2000/svg">
<g clip-path="url(#clip0_397_3180)">
<g filter="url(#filter0_iii_397_3180)">
<path d="M0 115C0 51.4872 51.4873 0 115 0H127C192.722 0 246 53.2781 246 119V127C246 192.722 192.722 246 127 246H123C55.069 246 0 190.931 0 123V115Z" fill="url(#paint0_radial_397_3180)"/>
</g>
<g filter="url(#filter1_i_397_3180)">
<path d="M110.877 108.563C110.227 100.372 106.194 93.0415 99.5043 87.8906C95.167 84.5484 89.5292 82.2171 83.9052 81.4332C80.8891 81.0137 77.3681 81.0137 74.5319 81.4332C70.7895 81.9902 67.0747 83.2899 64.0587 85.1123C58.9466 88.1932 55.4325 92.3881 53.7792 97.3877C53.1635 99.2307 52.8868 100.682 52.7831 102.559C52.2712 111.65 58.6837 119.456 67.9256 121.003C70.5889 121.45 73.3766 121.354 75.7286 120.728C77.9146 120.157 80.0659 119.043 81.6224 117.688C83.9052 115.694 85.3994 112.641 85.2679 110.213C85.1988 108.975 84.8944 107.951 84.1058 106.3C83.1581 104.327 82.0651 103.13 80.4602 102.318C79.0906 101.624 78.2466 101.445 76.538 101.5C75.2859 101.541 74.7256 101.631 73.7156 101.968C71.5504 102.683 70.1116 103.948 69.5305 105.654C69.3645 106.128 69.3437 106.3 69.3437 107.119C69.3437 107.909 69.3645 108.123 69.5028 108.528C69.7034 109.134 69.987 109.642 70.4298 110.199L70.7756 110.633L70.4782 110.585C69.6965 110.475 68.6589 110.268 68.2646 110.138C67.6697 109.945 67.1716 109.601 66.466 108.907C64.9649 107.421 64.3146 105.64 64.4184 103.267C64.536 100.702 65.7189 98.0272 67.6351 96.0329C69.6066 93.9767 72.6088 92.4363 75.777 91.8517C77.3404 91.5629 79.8653 91.4873 81.5117 91.6798C89.6053 92.622 96.1078 97.7797 98.3975 105.076C99.5596 108.79 99.5112 112.95 98.2591 116.904C95.7826 124.717 89.1556 130.755 80.2389 133.313C76.0607 134.509 71.4259 134.853 66.7496 134.31C62.8274 133.856 58.8843 132.715 55.301 130.988C51.8838 129.338 49.2551 127.522 46.6956 125.033C42.8148 121.258 40.1585 116.849 38.7127 111.795C36.0979 102.628 38.1316 92.3469 44.1914 84.0464C46.3082 81.1512 49.096 78.3523 52.0636 76.1517C57.5423 72.0943 64.3216 69.2954 71.5573 68.0988C74.1445 67.6724 75.9777 67.5073 78.7862 67.4592C83.414 67.3767 86.1603 67.6724 91.6529 68.8484C93.1955 69.1784 94.6482 69.0134 95.9556 68.3601C97.6504 67.5142 98.7364 66.0082 98.9163 64.2683C99.1446 62.0127 97.6642 59.8533 95.3192 59.0212C94.0463 58.5673 90.3247 57.8384 87.4331 57.4739C85.1158 57.1851 83.3794 57.0613 80.8615 57.0131C72.1799 56.8343 63.5191 58.4848 55.7161 61.8132C54.5055 62.329 51.697 63.6975 50.5971 64.3164C43.3129 68.3738 37.5437 73.6141 33.234 80.0922C29.879 85.133 27.6515 90.5589 26.6001 96.2874C26.2058 98.4467 26.0121 100.365 25.9567 102.717C25.7838 110.351 27.866 117.805 32.0027 124.38C33.6837 127.048 35.4338 129.214 37.8688 131.642C40.034 133.808 41.7288 135.204 44.1638 136.841C53.966 143.443 66.3968 146.242 78.1636 144.488C88.2702 142.989 97.3737 138.079 103.35 130.913C108.283 124.999 111.001 117.647 110.946 110.385C110.939 109.78 110.904 108.962 110.877 108.563Z" fill="#221725"/>
</g>
<g filter="url(#filter2_i_397_3180)">
<path d="M129.226 115.665C133.885 122.433 141.043 126.766 149.411 127.882C154.838 128.607 160.887 127.807 166.149 125.674C168.971 124.53 172.02 122.769 174.267 120.988C177.229 118.634 179.796 115.651 181.497 112.565C184.384 107.341 185.33 101.951 184.262 96.7944C183.873 94.8905 183.387 93.4955 182.539 91.8177C178.436 83.6885 168.98 80.1352 160.203 83.4161C157.673 84.3606 155.307 85.8379 153.583 87.5558C151.975 89.1431 150.669 91.1836 149.998 93.1351C149.019 96.0036 149.251 99.395 150.579 101.432C151.258 102.469 152.034 103.204 153.542 104.239C155.349 105.475 156.894 105.964 158.69 105.865C160.223 105.781 161.044 105.514 162.496 104.612C163.559 103.951 164 103.593 164.706 102.796C166.224 101.094 166.837 99.279 166.488 97.5114C166.394 97.0175 166.326 96.8582 165.917 96.1495C165.522 95.4646 165.397 95.2904 165.074 95.0081C164.598 94.5844 164.098 94.2855 163.436 94.0244L162.92 93.8222L163.201 93.7151C163.933 93.4196 164.935 93.0794 165.342 92.9954C165.954 92.8647 166.557 92.9135 167.515 93.1622C169.558 93.698 171.012 94.9154 172.108 97.022C173.289 99.3022 173.602 102.21 172.94 104.896C172.26 107.662 170.43 110.497 167.979 112.588C166.769 113.619 164.621 114.947 163.099 115.604C155.618 118.835 147.408 117.619 141.777 112.445C138.914 109.81 136.875 106.183 135.983 102.132C134.221 94.1286 136.941 85.586 143.384 78.9122C146.404 75.7868 150.246 73.1716 154.568 71.304C158.191 69.7359 162.177 68.753 166.143 68.4562C169.928 68.177 173.112 68.4349 176.574 69.3111C181.822 70.6403 186.327 73.1297 190.106 76.7842C196.954 83.4156 200.333 93.3361 199.236 103.554C198.85 107.12 197.835 110.938 196.365 114.328C193.649 120.581 189.178 126.394 183.51 131.048C181.482 132.711 179.977 133.771 177.569 135.217C173.603 137.602 171.076 138.719 165.732 140.447C164.231 140.932 163.055 141.802 162.25 143.021C161.205 144.601 161.017 146.449 161.731 148.045C162.662 150.113 165.023 151.243 167.47 150.791C168.799 150.547 172.387 149.318 175.073 148.188C177.225 147.279 178.79 146.518 180.995 145.301C188.603 141.115 195.278 135.355 200.371 128.571C201.162 127.519 202.91 124.93 203.553 123.844C207.833 116.688 210.209 109.265 210.702 101.5C211.087 95.4572 210.303 89.6445 208.35 84.1578C207.611 82.0906 206.82 80.3321 205.692 78.2676C202.025 71.5704 196.494 66.1556 189.625 62.5304C186.835 61.0601 184.236 60.0592 180.913 59.1743C177.955 58.3809 175.789 58.0193 172.862 57.8194C161.072 57.0031 148.908 60.7946 139.594 68.1967C131.591 74.5483 126.162 83.3523 124.569 92.5465C123.255 100.134 124.576 107.86 128.255 114.122C128.564 114.642 129.003 115.334 129.226 115.665Z" fill="#221725"/>
</g>
<g filter="url(#filter3_diiii_397_3180)">
<path d="M164 190.5C164 179.494 159.628 168.938 151.845 161.155C144.062 153.372 133.506 149 122.5 149C111.494 149 100.938 153.372 93.1551 161.155C85.3723 168.938 81 179.494 81 190.5L122.5 190.5H164Z" fill="url(#paint1_linear_397_3180)"/>
</g>
</g>
<defs>
<filter id="filter0_iii_397_3180" x="-11" y="-24" width="278" height="326" filterUnits="userSpaceOnUse" color-interpolation-filters="sRGB">
<feFlood flood-opacity="0" result="BackgroundImageFix"/>
<feBlend mode="normal" in="SourceGraphic" in2="BackgroundImageFix" result="shape"/>
<feColorMatrix in="SourceAlpha" type="matrix" values="0 0 0 0 0 0 0 0 0 0 0 0 0 0 0 0 0 0 127 0" result="hardAlpha"/>
<feMorphology radius="8" operator="erode" in="SourceAlpha" result="effect1_innerShadow_397_3180"/>
<feOffset dx="21" dy="73"/>
<feGaussianBlur stdDeviation="24"/>
<feComposite in2="hardAlpha" operator="arithmetic" k2="-1" k3="1"/>
<feColorMatrix type="matrix" values="0 0 0 0 0.682806 0 0 0 0 0.0652778 0 0 0 0 0.783333 0 0 0 0.14 0"/>
<feBlend mode="normal" in2="shape" result="effect1_innerShadow_397_3180"/>
<feColorMatrix in="SourceAlpha" type="matrix" values="0 0 0 0 0 0 0 0 0 0 0 0 0 0 0 0 0 0 127 0" result="hardAlpha"/>
<feOffset dy="-24"/>
<feGaussianBlur stdDeviation="15.5"/>
<feComposite in2="hardAlpha" operator="arithmetic" k2="-1" k3="1"/>
<feColorMatrix type="matrix" values="0 0 0 0 0.943639 0 0 0 0 0.223611 0 0 0 0 0.958333 0 0 0 0.44 0"/>
<feBlend mode="normal" in2="effect1_innerShadow_397_3180" result="effect2_innerShadow_397_3180"/>
<feColorMatrix in="SourceAlpha" type="matrix" values="0 0 0 0 0 0 0 0 0 0 0 0 0 0 0 0 0 0 127 0" result="hardAlpha"/>
<feOffset dx="-11" dy="30"/>
<feGaussianBlur stdDeviation="15.5"/>
<feComposite in2="hardAlpha" operator="arithmetic" k2="-1" k3="1"/>
<feColorMatrix type="matrix" values="0 0 0 0 1 0 0 0 0 0.766722 0 0 0 0 0.693056 0 0 0 0.68 0"/>
<feBlend mode="normal" in2="effect2_innerShadow_397_3180" result="effect3_innerShadow_397_3180"/>
</filter>
<filter id="filter1_i_397_3180" x="25.9468" y="57" width="85" height="88" filterUnits="userSpaceOnUse" color-interpolation-filters="sRGB">
<feFlood flood-opacity="0" result="BackgroundImageFix"/>
<feBlend mode="normal" in="SourceGraphic" in2="BackgroundImageFix" result="shape"/>
<feColorMatrix in="SourceAlpha" type="matrix" values="0 0 0 0 0 0 0 0 0 0 0 0 0 0 0 0 0 0 127 0" result="hardAlpha"/>
<feMorphology radius="26.45" operator="dilate" in="SourceAlpha" result="effect1_innerShadow_397_3180"/>
<feOffset dx="9.2" dy="-7"/>
<feGaussianBlur stdDeviation="10.35"/>
<feComposite in2="hardAlpha" operator="arithmetic" k2="-1" k3="1"/>
<feColorMatrix type="matrix" values="0 0 0 0 0.462111 0 0 0 0 0.203767 0 0 0 0 0.504167 0 0 0 0.35 0"/>
<feBlend mode="normal" in2="shape" result="effect1_innerShadow_397_3180"/>
</filter>
<filter id="filter2_i_397_3180" x="124.073" y="57.7102" width="86.7241" height="93.1794" filterUnits="userSpaceOnUse" color-interpolation-filters="sRGB">
<feFlood flood-opacity="0" result="BackgroundImageFix"/>
<feBlend mode="normal" in="SourceGraphic" in2="BackgroundImageFix" result="shape"/>
<feColorMatrix in="SourceAlpha" type="matrix" values="0 0 0 0 0 0 0 0 0 0 0 0 0 0 0 0 0 0 127 0" result="hardAlpha"/>
<feMorphology radius="26.45" operator="dilate" in="SourceAlpha" result="effect1_innerShadow_397_3180"/>
<feOffset dx="9.2" dy="-7"/>
<feGaussianBlur stdDeviation="10.35"/>
<feComposite in2="hardAlpha" operator="arithmetic" k2="-1" k3="1"/>
<feColorMatrix type="matrix" values="0 0 0 0 0.462111 0 0 0 0 0.203767 0 0 0 0 0.504167 0 0 0 0.35 0"/>
<feBlend mode="normal" in2="shape" result="effect1_innerShadow_397_3180"/>
</filter>
<filter id="filter3_diiii_397_3180" x="47.6667" y="121.667" width="149.667" height="108.167" filterUnits="userSpaceOnUse" color-interpolation-filters="sRGB">
<feFlood flood-opacity="0" result="BackgroundImageFix"/>
<feColorMatrix in="SourceAlpha" type="matrix" values="0 0 0 0 0 0 0 0 0 0 0 0 0 0 0 0 0 0 127 0" result="hardAlpha"/>
<feOffset dy="6"/>
<feGaussianBlur stdDeviation="16.6667"/>
<feColorMatrix type="matrix" values="0 0 0 0 0.0298758 0 0 0 0 0.0216858 0 0 0 0 0.0308333 0 0 0 0.24 0"/>
<feBlend mode="normal" in2="BackgroundImageFix" result="effect1_dropShadow_397_3180"/>
<feBlend mode="normal" in="SourceGraphic" in2="effect1_dropShadow_397_3180" result="shape"/>
<feColorMatrix in="SourceAlpha" type="matrix" values="0 0 0 0 0 0 0 0 0 0 0 0 0 0 0 0 0 0 127 0" result="hardAlpha"/>
<feOffset dy="-34"/>
<feGaussianBlur stdDeviation="2.59259"/>
<feComposite in2="hardAlpha" operator="arithmetic" k2="-1" k3="1"/>
<feColorMatrix type="matrix" values="0 0 0 0 0.17328 0 0 0 0 0.125777 0 0 0 0 0.178833 0 0 0 1 0"/>
<feBlend mode="normal" in2="shape" result="effect2_innerShadow_397_3180"/>
<feColorMatrix in="SourceAlpha" type="matrix" values="0 0 0 0 0 0 0 0 0 0 0 0 0 0 0 0 0 0 127 0" result="hardAlpha"/>
<feOffset dy="-40"/>
<feGaussianBlur stdDeviation="1.2963"/>
<feComposite in2="hardAlpha" operator="arithmetic" k2="-1" k3="1"/>
<feColorMatrix type="matrix" values="0 0 0 0 0.119503 0 0 0 0 0.086743 0 0 0 0 0.123333 0 0 0 1 0"/>
<feBlend mode="normal" in2="effect2_innerShadow_397_3180" result="effect3_innerShadow_397_3180"/>
<feColorMatrix in="SourceAlpha" type="matrix" values="0 0 0 0 0 0 0 0 0 0 0 0 0 0 0 0 0 0 127 0" result="hardAlpha"/>
<feMorphology radius="26.45" operator="dilate" in="SourceAlpha" result="effect4_innerShadow_397_3180"/>
<feOffset dx="9.2" dy="-13"/>
<feGaussianBlur stdDeviation="10.35"/>
<feComposite in2="hardAlpha" operator="arithmetic" k2="-1" k3="1"/>
<feColorMatrix type="matrix" values="0 0 0 0 0.462111 0 0 0 0 0.203767 0 0 0 0 0.504167 0 0 0 0.35 0"/>
<feBlend mode="normal" in2="effect3_innerShadow_397_3180" result="effect4_innerShadow_397_3180"/>
<feColorMatrix in="SourceAlpha" type="matrix" values="0 0 0 0 0 0 0 0 0 0 0 0 0 0 0 0 0 0 127 0" result="hardAlpha"/>
<feMorphology radius="26.45" operator="dilate" in="SourceAlpha" result="effect5_innerShadow_397_3180"/>
<feOffset dx="9.2" dy="-31"/>
<feGaussianBlur stdDeviation="10.35"/>
<feComposite in2="hardAlpha" operator="arithmetic" k2="-1" k3="1"/>
<feColorMatrix type="matrix" values="0 0 0 0 0.462111 0 0 0 0 0.203767 0 0 0 0 0.504167 0 0 0 0.35 0"/>
<feBlend mode="normal" in2="effect4_innerShadow_397_3180" result="effect5_innerShadow_397_3180"/>
</filter>
<radialGradient id="paint0_radial_397_3180" cx="0" cy="0" r="1" gradientUnits="userSpaceOnUse" gradientTransform="translate(109 16) rotate(86.5167) scale(230.426)">
<stop offset="0.576389" stop-color="#FFBB0C"/>
<stop offset="1" stop-color="#FFC907"/>
</radialGradient>
<linearGradient id="paint1_linear_397_3180" x1="122.5" y1="149" x2="122.5" y2="232" gradientUnits="userSpaceOnUse">
<stop stop-color="#201721"/>
<stop offset="1" stop-color="#2B1F2C"/>
</linearGradient>
<clipPath id="clip0_397_3180">
<rect width="246" height="246" fill="white"/>
</clipPath>
</defs>
</svg>